Jump_normalized_precision_landing02_filtered_grf
version=1
nRows=25
nColumns=37
inDegrees=yes
endheader
time		1_ground_force_vx		1_ground_force_vy		1_ground_force_vz		1_ground_force_px		1_ground_force_py		1_ground_force_pz		1_ground_torque_x		1_ground_torque_y		1_ground_torque_z		2_ground_force_vx		2_ground_force_vy		2_ground_force_vz		2_ground_force_px		2_ground_force_py		2_ground_force_pz		2_ground_torque_x		2_ground_torque_y		2_ground_torque_z		3_ground_force_vx		3_ground_force_vy		3_ground_force_vz		3_ground_force_px		3_ground_force_py		3_ground_force_pz		3_ground_torque_x		3_ground_torque_y		3_ground_torque_z		4_ground_force_vx		4_ground_force_vy		4_ground_force_vz		4_ground_force_px		4_ground_force_py		4_ground_force_pz		4_ground_torque_x		4_ground_torque_y		4_ground_torque_z		
0.497000		-0.000000		-0.000000		-0.000000		0.070722		0.000000		0.245450		-0.000000		-0.000000		0.000000		-0.000000		-0.000000		-0.000000		-0.174813		0.000000		0.268225		-0.000000		0.000000		-0.000000		12.918881		343.679778		-124.001598		0.380867		1.274523		1.889946		1.829091		-41.074401		-45.503380		12.225658		265.761140		-96.510076		-0.351145		1.267839		1.877828		0.910555		19.793634		-7.187977		
0.499348		-0.000000		0.000000		-0.000000		0.070722		0.000000		0.245450		0.000000		0.000000		-0.000000		-0.000000		-0.000000		-0.000000		-0.174813		0.000000		0.268225		-0.000000		0.000000		-0.000000		13.561036		327.639759		-123.143960		0.380857		1.274552		1.889916		1.755419		-39.663576		-43.183720		11.451987		247.105854		-95.821455		-0.351155		1.267882		1.877746		0.846214		18.259231		-7.080437		
0.501697		-0.000000		0.000000		0.000000		0.070722		0.000000		0.245450		0.000000		0.000000		-0.000000		0.000000		-0.000000		-0.000000		-0.174813		0.000000		0.268225		-0.000000		0.000000		-0.000000		14.249519		310.789292		-121.411447		0.380843		1.274585		1.889875		1.685419		-38.071656		-40.788768		10.565538		228.433765		-94.071695		-0.351161		1.267927		1.877648		0.773947		16.733219		-6.890896		
0.504045		-0.000000		0.000000		0.000000		0.070722		0.000000		0.245450		0.000000		0.000000		-0.000000		0.000000		0.000000		-0.000000		-0.174813		0.000000		0.268225		0.000000		-0.000000		0.000000		14.977888		293.146395		-118.804311		0.380826		1.274620		1.889822		-0.905908		-17.730510		7.185680		9.531813		209.768370		-91.274433		-0.351162		1.267971		1.877537		0.691597		15.220087		-6.622552		
0.506394		-0.000000		0.000000		0.000000		0.070722		0.000000		0.245450		0.000000		0.000000		-0.000000		0.000000		0.000000		0.000000		-0.174813		0.000000		0.268225		0.000000		-0.000000		0.000000		15.732443		274.773555		-115.329771		0.380805		1.274659		1.889757		-0.934592		-16.323310		6.851293		8.327896		191.139625		-87.473226		-0.351154		1.268016		1.877415		0.597976		13.724523		-6.280872		
0.508742		-0.000000		0.000000		0.000000		0.070722		0.000000		0.245450		0.000000		0.000000		-0.000000		0.000000		0.000000		0.000000		-0.174813		0.000000		0.268225		0.000000		-0.000000		0.000000		16.494522		255.796406		-111.024233		0.380781		1.274703		1.889679		-0.960387		-14.894082		6.464481		6.952594		172.602458		-82.763465		-0.351142		1.268061		1.877284		0.493550		12.252525		-5.875091		
0.511091		0.000000		0.000000		0.000000		0.070722		0.000000		0.245450		0.000000		0.000000		-0.000000		0.000000		0.000000		0.000000		-0.174813		0.000000		0.268225		0.000000		-0.000000		0.000000		17.245704		236.382743		-105.935913		0.380753		1.274753		1.889590		-0.981790		-13.457438		6.030977		5.426656		154.249031		-77.265641		-0.351126		1.268106		1.877148		0.380409		10.812688		-5.416216		
0.513439		0.000000		0.000000		0.000000		0.070722		0.000000		0.245450		0.000000		0.000000		-0.000000		0.000000		0.000000		0.000000		-0.174813		0.000000		0.268225		0.000000		-0.000000		0.000000		17.970528		216.731171		-100.116460		0.380719		1.274813		1.889492		-0.997497		-12.030385		5.557276		3.790520		136.215737		-71.112489		-0.351114		1.268148		1.877007		0.262058		9.417086		-4.916250		
0.515788		0.000000		-0.000000		-0.000000		0.070722		0.000000		0.245450		-0.000000		-0.000000		0.000000		0.000000		0.000000		0.000000		-0.174813		0.000000		0.268225		0.000000		-0.000000		0.000000		18.656208		197.063072		-93.630758		0.380681		1.274885		1.889385		-1.006410		-10.631058		5.051098		2.102259		118.677432		-64.453295		-0.351109		1.268188		1.876862		1.231417		18.201014		14.281762		
0.518136		0.000000		-0.000000		-0.000000		0.070722		0.000000		0.245450		-0.000000		-0.000000		0.000000		-0.000000		0.000000		0.000000		-0.174813		0.000000		0.268225		0.000000		-0.000000		0.000000		19.289444		177.596724		-86.561041		0.380636		1.274968		1.889273		-1.007484		-9.276239		4.521226		0.429222		101.824225		-57.448655		-0.351116		1.268225		1.876717		1.159268		15.848224		12.167115		
0.520485		0.000000		-0.000000		-0.000000		0.070722		0.000000		0.245450		-0.000000		-0.000000		0.000000		-0.000000		-0.000000		0.000000		-0.174813		0.000000		0.268225		-0.000000		0.000000		-0.000000		19.849815		158.530868		-78.995758		0.380588		1.275062		1.889155		-0.999264		-7.980692		3.976766		-1.160478		85.854514		-50.259814		-0.351135		1.268258		1.876571		1.078606		13.561103		10.192769		
0.522833		0.000000		-0.000000		-0.000000		0.070722		0.000000		0.245450		-0.000000		-0.000000		0.000000		-0.000000		-0.000000		-0.000000		-0.174813		0.000000		0.268225		-0.000000		0.000000		-0.000000		20.303430		140.039277		-71.041298		0.380538		1.275162		1.889028		-0.979573		-6.756896		3.427718		-2.601398		70.966887		-43.055295		-0.351167		1.268286		1.876424		0.988181		11.379019		8.375974		
0.525182		-0.000000		-0.000000		-0.000000		0.070722		0.000000		0.245450		-0.000000		-0.000000		0.000000		-0.000000		-0.000000		-0.000000		-0.174813		0.000000		0.268225		-0.000000		0.000000		-0.000000		20.607734		122.241149		-62.839661		0.380489		1.275259		1.888888		-0.946023		-5.612115		2.884964		-3.842342		57.307305		-36.004960		-0.351209		1.268310		1.876276		0.887892		9.334714		6.727855		
0.527530		-0.000000		-0.000000		-0.000000		0.070722		0.000000		0.245450		-0.000000		-0.000000		0.000000		-0.000000		-0.000000		-0.000000		-0.174813		0.000000		0.268225		-0.000000		0.000000		-0.000000		20.715264		105.223686		-54.556217		0.380448		1.275346		1.888728		-0.895990		-4.551325		2.359762		-4.845781		44.997991		-29.273809		-0.351254		1.268329		1.876126		0.778543		7.456841		5.258058		
0.529879		-0.000000		-0.000000		-0.000000		0.070722		0.000000		0.245450		-0.000000		-0.000000		0.000000		-0.000000		-0.000000		-0.000000		-0.174813		0.000000		0.268225		-0.000000		0.000000		-0.000000		20.581176		89.060092		-46.386609		0.380420		1.275411		1.888542		-0.826880		-3.578528		1.863858		-5.588448		34.141203		-23.024793		-0.351298		1.268344		1.875970		-0.085238		2.958952		-0.001429		
0.532227		-0.000000		0.000000		0.000000		0.070722		0.000000		0.245450		0.000000		0.000000		-0.000000		-0.000000		-0.000000		-0.000000		-0.174813		0.000000		0.268225		-0.000000		0.000000		-0.000000		20.177214		73.802881		-38.548230		0.380412		1.275451		1.888327		-0.736789		-2.695557		1.407919		-6.070342		24.777012		-17.394208		-0.351336		1.268356		1.875807		-0.337236		1.376961		-0.966632		
0.534576		-0.000000		0.000000		0.000000		0.070722		0.000000		0.245450		0.000000		0.000000		-0.000000		0.000000		-0.000000		-0.000000		-0.174813		0.000000		0.268225		-0.000000		0.000000		-0.000000		19.493835		59.529309		-31.257947		0.380425		1.275466		1.888085		-0.624050		-1.906026		1.000816		-6.308444		16.920451		-12.492253		-0.351363		1.268365		1.875636		-0.314212		0.843119		-0.622435		
0.536924		-0.000000		0.000000		0.000000		0.070722		0.000000		0.245450		0.000000		0.000000		-0.000000		0.000000		0.000000		-0.000000		-0.174813		0.000000		0.268225		0.000000		-0.000000		0.000000		18.542630		46.366103		-24.720668		0.380458		1.275458		1.887821		-0.486829		-1.217698		0.649209		-6.335062		10.568490		-8.402579		-0.351382		1.268376		1.875457		-0.246766		0.412133		-0.327604		
0.539273		-0.000000		0.000000		0.000000		0.070722		0.000000		0.245450		0.000000		0.000000		-0.000000		0.000000		0.000000		0.000000		-0.174813		0.000000		0.268225		0.000000		-0.000000		0.000000		17.364470		34.476995		-19.094830		0.380508		1.275437		1.887541		-0.323630		-0.643420		0.356249		-6.199612		5.670149		-5.161276		-0.351392		1.268386		1.875272		-0.115377		0.106692		-0.096824		
0.541621		0.000000		0.000000		0.000000		0.070722		0.000000		0.245450		0.000000		0.000000		-0.000000		0.000000		0.000000		0.000000		-0.174813		0.000000		0.268225		0.000000		-0.000000		0.000000		16.028137		24.039727		-14.464613		0.380568		1.275410		1.887253		-0.135787		-0.204390		0.122816		-5.961824		2.122021		-2.749552		-0.351396		1.268397		1.875083		0.045944		-0.015896		0.020883		
0.543970		0.000000		0.000000		0.000000		0.070722		0.000000		0.245450		0.000000		0.000000		-0.000000		0.000000		0.000000		0.000000		-0.174813		0.000000		0.268225		0.000000		-0.000000		0.000000		14.621750		15.234401		-10.845949		0.380632		1.275384		1.886966		0.062153		0.064528		-0.046028		-5.682371		-0.212971		-1.107105		-0.351399		1.268409		1.874892		0.081045		0.003009		0.015809		
0.546318		0.000000		0.000000		0.000000		0.070722		0.000000		0.245450		0.000000		0.000000		-0.000000		0.000000		0.000000		0.000000		-0.174813		0.000000		0.268225		0.000000		-0.000000		0.000000		13.245270		8.198264		-8.184953		0.380692		1.275367		1.886686		0.212558		0.131063		-0.131217		-5.416959		-1.515245		-0.130720		-0.351400		1.268419		1.874703		0.004878		0.001221		0.000224		
0.548667		0.000000		-0.000000		-0.000000		0.070722		0.000000		0.245450		-0.000000		-0.000000		0.000000		0.000000		0.000000		0.000000		-0.174813		0.000000		0.268225		0.000000		-0.000000		0.000000		11.992144		2.937775		-6.352919		0.380740		1.275362		1.886420		0.214087		0.052713		-0.113469		-5.207494		-2.018177		0.327176		-0.351401		1.268426		1.874514		-0.050015		-0.019397		0.003157		
0.551015		0.000000		-0.000000		-0.000000		0.070722		0.000000		0.245450		-0.000000		-0.000000		0.000000		-0.000000		0.000000		0.000000		-0.174813		0.000000		0.268225		0.000000		-0.000000		0.000000		10.935870		-0.638632		-5.200456		0.380773		1.275371		1.886169		0.062875		-0.003613		-0.029907		-5.079197		-1.955273		0.418716		-0.351399		1.268427		1.874327		-0.060562		-0.023315		0.004993		
0.553364		0.000000		-0.000000		-0.000000		0.070722		0.000000		0.245450		-0.000000		-0.000000		0.000000		-0.000000		-0.000000		0.000000		-0.174813		0.000000		0.268225		-0.000000		0.000000		-0.000000		10.124776		-2.721089		-4.571446		0.380789		1.275391		1.885936		-0.094001		0.025459		0.042428		-5.042302		-1.549491		0.289332		-0.351394		1.268421		1.874140		-0.040113		-0.012353		0.002311		
